STARTFONT 2.1
FONT -FontForge-Untitled2-Regular-R-Normal--16-150-75-75-M-160-ISO8859-1
SIZE 15 75 75
FONTBOUNDINGBOX 8 17 0 -4
COMMENT "Generated by fontforge, http://fontforge.sourceforge.net"
COMMENT "Copyright (c) 2026, Unknown"
STARTPROPERTIES 30
FOUNDRY "FontForge"
FAMILY_NAME "Untitled2"
WEIGHT_NAME "Regular"
SLANT "R"
SETWIDTH_NAME "Normal"
ADD_STYLE_NAME ""
PIXEL_SIZE 16
POINT_SIZE 150
RESOLUTION_X 75
RESOLUTION_Y 75
SPACING "M"
AVERAGE_WIDTH 160
CHARSET_REGISTRY "ISO8859"
CHARSET_ENCODING "1"
FONTNAME_REGISTRY ""
CHARSET_COLLECTIONS "ISOLatin1Encoding"
FONT_NAME "Untitled2"
FACE_NAME "Untitled2"
COPYRIGHT "Copyright (c) 2026, Unknown"
FONT_VERSION "001.000"
FONT_ASCENT 13
FONT_DESCENT 3
UNDERLINE_POSITION -2
UNDERLINE_THICKNESS 1
CAP_HEIGHT 12
RAW_ASCENT 800
RAW_DESCENT 200
FIGURE_WIDTH 16
AVG_LOWERCASE_WIDTH 160
AVG_UPPERCASE_WIDTH 160
ENDPROPERTIES
CHARS 52
STARTCHAR uni000B
ENCODING 11
SWIDTH 1000 0
DWIDTH 16 0
BBX 7 13 0 0
BITMAP
38
7C
EE
C6
92
BA
BA
BA
92
C6
EE
7C
38
ENDCHAR
STARTCHAR uni000C
ENCODING 12
SWIDTH 1000 0
DWIDTH 16 0
BBX 6 13 0 0
BITMAP
10
30
70
F0
30
30
30
30
30
30
30
30
FC
ENDCHAR
STARTCHAR uni000D
ENCODING 13
SWIDTH 1000 0
DWIDTH 16 0
BBX 7 13 0 0
BITMAP
7C
EE
C6
86
06
0E
1C
38
70
E0
C0
E0
FE
ENDCHAR
STARTCHAR uni000E
ENCODING 14
SWIDTH 1000 0
DWIDTH 16 0
BBX 7 13 0 0
BITMAP
78
FC
0E
06
06
06
7C
FE
06
06
06
7E
FC
ENDCHAR
STARTCHAR uni000F
ENCODING 15
SWIDTH 1000 0
DWIDTH 16 0
BBX 7 13 0 0
BITMAP
82
C6
C6
C6
C6
C6
FE
7E
0E
06
06
06
06
ENDCHAR
STARTCHAR uni0010
ENCODING 16
SWIDTH 1000 0
DWIDTH 16 0
BBX 7 13 0 0
BITMAP
7C
FE
E0
C0
C0
FC
FE
0E
06
06
0E
FE
FC
ENDCHAR
STARTCHAR uni0011
ENCODING 17
SWIDTH 1000 0
DWIDTH 16 0
BBX 7 13 0 0
BITMAP
3C
7E
E2
C0
C0
FC
FE
EE
C6
C6
EE
FE
7C
ENDCHAR
STARTCHAR uni0012
ENCODING 18
SWIDTH 1000 0
DWIDTH 16 0
BBX 7 13 0 0
BITMAP
7C
FE
06
06
0C
FE
30
60
C0
C0
C0
E0
70
ENDCHAR
STARTCHAR uni0013
ENCODING 19
SWIDTH 1000 0
DWIDTH 16 0
BBX 7 13 0 0
BITMAP
7C
EE
C6
C6
C6
EE
7C
EE
C6
C6
C6
EE
7C
ENDCHAR
STARTCHAR uni0014
ENCODING 20
SWIDTH 1000 0
DWIDTH 16 0
BBX 7 13 0 0
BITMAP
7C
FE
EE
C6
EE
FE
7E
06
06
06
0E
3C
F8
ENDCHAR
STARTCHAR exclam
ENCODING 33
SWIDTH 1000 0
DWIDTH 16 0
BBX 5 13 1 0
BITMAP
20
70
F8
F8
F8
70
70
70
20
00
20
70
20
ENDCHAR
STARTCHAR zero
ENCODING 48
SWIDTH 1000 0
DWIDTH 16 0
BBX 8 16 0 -3
BITMAP
7E
FF
E7
C3
C3
DB
DB
DB
DB
DB
DB
C3
C3
E7
FF
7E
ENDCHAR
STARTCHAR one
ENCODING 49
SWIDTH 1000 0
DWIDTH 16 0
BBX 8 16 0 -3
BITMAP
18
38
78
F8
18
18
18
18
18
18
18
18
18
18
3C
FF
ENDCHAR
STARTCHAR two
ENCODING 50
SWIDTH 1000 0
DWIDTH 16 0
BBX 8 16 0 -3
BITMAP
7E
FF
E7
C3
03
03
03
03
07
0E
1C
38
70
E0
FE
FF
ENDCHAR
STARTCHAR three
ENCODING 51
SWIDTH 1000 0
DWIDTH 16 0
BBX 8 16 0 -3
BITMAP
7C
FE
0F
07
03
03
07
7F
FE
0F
07
03
03
07
7F
FE
ENDCHAR
STARTCHAR four
ENCODING 52
SWIDTH 1000 0
DWIDTH 16 0
BBX 8 16 0 -3
BITMAP
C3
C3
C3
C3
C3
C3
C3
E7
FF
7F
3F
07
03
03
03
01
ENDCHAR
STARTCHAR five
ENCODING 53
SWIDTH 1000 0
DWIDTH 16 0
BBX 8 16 0 -3
BITMAP
7E
FF
E1
C0
C0
C0
C0
E0
7E
3F
07
03
03
07
7F
FE
ENDCHAR
STARTCHAR six
ENCODING 54
SWIDTH 1000 0
DWIDTH 16 0
BBX 8 16 0 -3
BITMAP
7E
FF
E0
C0
C0
C0
C0
FE
FF
E7
C3
81
C3
E7
FF
7E
ENDCHAR
STARTCHAR seven
ENCODING 55
SWIDTH 1000 0
DWIDTH 16 0
BBX 8 16 0 -3
BITMAP
7E
FF
03
03
07
0E
FE
7F
38
70
E0
C0
C0
C0
E0
70
ENDCHAR
STARTCHAR eight
ENCODING 56
SWIDTH 1000 0
DWIDTH 16 0
BBX 8 16 0 -3
BITMAP
3C
66
C3
C3
C3
C3
E7
7E
7E
E7
C3
C3
C3
C3
66
3C
ENDCHAR
STARTCHAR nine
ENCODING 57
SWIDTH 1000 0
DWIDTH 16 0
BBX 8 16 0 -3
BITMAP
7E
FF
E7
C3
C3
E7
FF
7F
03
03
03
03
07
0F
7E
FC
ENDCHAR
STARTCHAR A
ENCODING 65
SWIDTH 1000 0
DWIDTH 16 0
BBX 8 17 0 -4
BITMAP
18
3C
7E
E7
C3
C3
C3
E7
FF
DB
C3
C3
C3
C3
C3
C3
E7
ENDCHAR
STARTCHAR B
ENCODING 66
SWIDTH 1000 0
DWIDTH 16 0
BBX 8 16 0 -3
BITMAP
FC
7E
7B
73
63
67
6F
7E
7E
7B
73
63
67
6F
7E
FC
ENDCHAR
STARTCHAR C
ENCODING 67
SWIDTH 1000 0
DWIDTH 16 0
BBX 8 16 0 -3
BITMAP
7C
FE
E7
C3
C1
C1
C0
C0
C0
C0
C1
C1
C3
E6
FE
7C
ENDCHAR
STARTCHAR D
ENCODING 68
SWIDTH 1000 0
DWIDTH 16 0
BBX 8 16 0 -3
BITMAP
FC
7E
7B
73
63
63
63
63
63
63
63
63
67
6F
7E
FC
ENDCHAR
STARTCHAR E
ENCODING 69
SWIDTH 1000 0
DWIDTH 16 0
BBX 8 16 0 -3
BITMAP
FE
7F
63
61
60
64
64
7C
7C
64
64
60
61
63
7F
FE
ENDCHAR
STARTCHAR F
ENCODING 70
SWIDTH 1000 0
DWIDTH 16 0
BBX 8 16 0 -3
BITMAP
FE
7F
63
61
60
64
64
7C
7C
64
64
60
60
60
60
F0
ENDCHAR
STARTCHAR G
ENCODING 71
SWIDTH 1000 0
DWIDTH 16 0
BBX 8 16 0 -3
BITMAP
7E
FF
E3
C1
C0
C0
C0
DE
CF
C7
C3
C3
C3
E7
FF
7E
ENDCHAR
STARTCHAR H
ENCODING 72
SWIDTH 1000 0
DWIDTH 16 0
BBX 7 16 0 -3
BITMAP
EE
C6
C6
C6
C6
C6
EE
FE
FE
EE
C6
C6
C6
C6
C6
EE
ENDCHAR
STARTCHAR I
ENCODING 73
SWIDTH 1000 0
DWIDTH 16 0
BBX 8 16 0 -3
BITMAP
FF
7E
18
18
18
18
18
18
18
18
18
18
18
18
7E
FF
ENDCHAR
STARTCHAR J
ENCODING 74
SWIDTH 1000 0
DWIDTH 16 0
BBX 8 16 0 -3
BITMAP
0F
06
06
06
06
06
06
06
06
06
F6
66
66
66
7E
3C
ENDCHAR
STARTCHAR K
ENCODING 75
SWIDTH 1000 0
DWIDTH 16 0
BBX 8 16 0 -3
BITMAP
E0
62
67
6F
7D
78
70
60
60
70
78
7D
6F
67
62
E0
ENDCHAR
STARTCHAR L
ENCODING 76
SWIDTH 1000 0
DWIDTH 16 0
BBX 8 16 0 -3
BITMAP
F0
60
60
60
60
60
60
60
60
60
60
60
61
63
7F
FF
ENDCHAR
STARTCHAR M
ENCODING 77
SWIDTH 1000 0
DWIDTH 16 0
BBX 8 16 0 -3
BITMAP
81
C3
E7
FF
FF
DB
C3
C3
C3
C3
C3
C3
C3
C3
C3
E7
ENDCHAR
STARTCHAR N
ENCODING 78
SWIDTH 1000 0
DWIDTH 16 0
BBX 8 16 0 -3
BITMAP
C3
C3
C3
E3
E3
F3
F3
DB
DB
CF
CF
C7
C7
C3
C3
C3
ENDCHAR
STARTCHAR O
ENCODING 79
SWIDTH 1000 0
DWIDTH 16 0
BBX 8 16 0 -3
BITMAP
18
3C
7E
F3
E3
C3
C3
C3
C3
C3
C3
C7
CF
7E
3C
18
ENDCHAR
STARTCHAR P
ENCODING 80
SWIDTH 1000 0
DWIDTH 16 0
BBX 8 16 0 -3
BITMAP
FC
7E
73
63
67
7E
7C
60
60
60
60
60
60
60
60
F0
ENDCHAR
STARTCHAR Q
ENCODING 81
SWIDTH 1000 0
DWIDTH 16 0
BBX 8 16 0 -3
BITMAP
3C
7E
F3
E3
C3
C3
C3
C3
C3
C3
C7
CF
7F
3E
07
03
ENDCHAR
STARTCHAR R
ENCODING 82
SWIDTH 1000 0
DWIDTH 16 0
BBX 8 16 0 -3
BITMAP
FC
7E
7B
73
63
67
6F
7E
7C
7E
6F
67
63
63
73
FB
ENDCHAR
STARTCHAR S
ENCODING 83
SWIDTH 1000 0
DWIDTH 16 0
BBX 8 16 0 -3
BITMAP
3C
7E
CF
C7
C1
E0
F0
7C
3E
0F
07
83
C3
E3
FE
7C
ENDCHAR
STARTCHAR T
ENCODING 84
SWIDTH 1000 0
DWIDTH 16 0
BBX 8 16 0 -3
BITMAP
7E
FF
99
18
18
18
18
18
18
18
18
18
18
18
3C
7E
ENDCHAR
STARTCHAR U
ENCODING 85
SWIDTH 1000 0
DWIDTH 16 0
BBX 8 16 0 -3
BITMAP
81
C3
C3
C3
C3
C3
C3
C3
C3
C3
C3
C3
C3
E7
7E
3C
ENDCHAR
STARTCHAR V
ENCODING 86
SWIDTH 1000 0
DWIDTH 16 0
BBX 8 16 0 -3
BITMAP
81
C3
C3
C3
C3
C3
C3
C3
C3
C3
C3
C3
E7
7E
3C
18
ENDCHAR
STARTCHAR W
ENCODING 87
SWIDTH 1000 0
DWIDTH 16 0
BBX 8 16 0 -3
BITMAP
81
C3
C3
C3
C3
C3
CB
DB
DB
DB
DB
DB
FF
FF
7E
3C
ENDCHAR
STARTCHAR X
ENCODING 88
SWIDTH 1000 0
DWIDTH 16 0
BBX 8 16 0 -3
BITMAP
C3
E7
66
66
66
3C
3C
18
18
3C
3C
66
66
66
E7
C3
ENDCHAR
STARTCHAR Y
ENCODING 89
SWIDTH 1000 0
DWIDTH 16 0
BBX 8 16 0 -3
BITMAP
81
C3
C3
C3
C3
C3
E7
FF
7E
3C
18
18
18
18
3C
7E
ENDCHAR
STARTCHAR Z
ENCODING 90
SWIDTH 1000 0
DWIDTH 16 0
BBX 8 16 0 -3
BITMAP
7F
FF
07
03
03
07
0E
1C
38
70
E0
C0
C0
E0
FE
FF
ENDCHAR
STARTCHAR d
ENCODING 100
SWIDTH 1000 0
DWIDTH 16 0
BBX 8 16 0 -3
BITMAP
07
03
03
03
03
03
03
3F
7F
F7
E3
C3
C7
EF
7F
3E
ENDCHAR
STARTCHAR e
ENCODING 101
SWIDTH 1000 0
DWIDTH 16 0
BBX 7 10 0 -3
BITMAP
7C
FE
C6
82
C6
FE
FC
C0
FC
7E
ENDCHAR
STARTCHAR l
ENCODING 108
SWIDTH 1000 0
DWIDTH 16 0
BBX 4 16 2 -3
BITMAP
E0
60
60
60
60
60
60
60
60
60
60
60
60
60
60
F0
ENDCHAR
STARTCHAR o
ENCODING 111
SWIDTH 1000 0
DWIDTH 16 0
BBX 8 9 0 -3
BITMAP
3C
7E
F3
E3
C3
C7
CF
7E
3C
ENDCHAR
STARTCHAR r
ENCODING 114
SWIDTH 1000 0
DWIDTH 16 0
BBX 8 9 0 -3
BITMAP
C0
FE
7F
73
61
60
60
60
60
ENDCHAR
ENDFONT
