STARTFONT 2.1
FONT -FontForge-Untitled2-Regular-R-Normal--16-150-75-75-C-160-ISO8859-1
SIZE 15 75 75
FONTBOUNDINGBOX 7 13 0 0
COMMENT "Generated by fontforge, http://fontforge.sourceforge.net"
COMMENT "Copyright (c) 2026, Unknown"
STARTPROPERTIES 27
FOUNDRY "FontForge"
FAMILY_NAME "Untitled2"
WEIGHT_NAME "Regular"
SLANT "R"
SETWIDTH_NAME "Normal"
ADD_STYLE_NAME ""
PIXEL_SIZE 16
POINT_SIZE 150
RESOLUTION_X 75
RESOLUTION_Y 75
SPACING "C"
AVERAGE_WIDTH 160
CHARSET_REGISTRY "ISO8859"
CHARSET_ENCODING "1"
FONTNAME_REGISTRY ""
CHARSET_COLLECTIONS "ISOLatin1Encoding"
FONT_NAME "Untitled2"
FACE_NAME "Untitled2"
COPYRIGHT "Copyright (c) 2026, Unknown"
FONT_VERSION "001.000"
FONT_ASCENT 13
FONT_DESCENT 3
UNDERLINE_POSITION -2
UNDERLINE_THICKNESS 1
RAW_ASCENT 800
RAW_DESCENT 200
FIGURE_WIDTH -1
ENDPROPERTIES
CHARS 6
STARTCHAR uni000B
ENCODING 11
SWIDTH 1000 0
DWIDTH 16 0
BBX 7 13 0 0
BITMAP
38
7C
EE
C6
92
BA
BA
BA
92
C6
EE
7C
38
ENDCHAR
STARTCHAR uni000C
ENCODING 12
SWIDTH 1000 0
DWIDTH 16 0
BBX 6 13 0 0
BITMAP
10
30
70
F0
30
30
30
30
30
30
30
30
FC
ENDCHAR
STARTCHAR uni000D
ENCODING 13
SWIDTH 1000 0
DWIDTH 16 0
BBX 7 13 0 0
BITMAP
7C
EE
C6
86
06
0E
1C
38
70
E0
C0
E0
FE
ENDCHAR
STARTCHAR uni000E
ENCODING 14
SWIDTH 1000 0
DWIDTH 16 0
BBX 7 13 0 0
BITMAP
78
FC
0E
06
06
06
7C
FE
06
06
06
7E
FC
ENDCHAR
STARTCHAR uni000F
ENCODING 15
SWIDTH 1000 0
DWIDTH 16 0
BBX 7 13 0 0
BITMAP
82
C6
C6
C6
C6
C6
FE
7E
0E
06
06
06
06
ENDCHAR
STARTCHAR uni0010
ENCODING 16
SWIDTH 1000 0
DWIDTH 16 0
BBX 7 13 0 0
BITMAP
7C
FE
E0
C0
C0
FC
FE
0E
06
06
0E
FE
FC
ENDCHAR
ENDFONT
